<svg xmlns="http://www.w3.org/2000/svg" viewBox="0 0 455.38 137.6"><defs><style>.cls-1{fill:#ffba21;}</style></defs><g id="Layer_2" data-name="Layer 2"><g id="Layer_1-2" data-name="Layer 1"><path d="M107.24,57.43v21.4A32.24,32.24,0,0,1,75,111.05a31.6,31.6,0,0,1-21.4-8.25A32.13,32.13,0,0,1,0,78.83V57.43A10.79,10.79,0,0,1,10.7,46.6,10.79,10.79,0,0,1,21.4,57.43v21.4a10.67,10.67,0,0,0,10.69,10.7,10.79,10.79,0,0,0,10.83-10.7V57.43a10.7,10.7,0,1,1,21.4,0v21.4a10.76,10.76,0,0,0,21.52,0V57.43a10.7,10.7,0,1,1,21.4,0Z"/><path d="M184.71,78.83v21.52a10.67,10.67,0,0,1-10.7,10.7,10.79,10.79,0,0,1-10.83-10.7V78.83a10.76,10.76,0,1,0-21.52,0v21.52a10.67,10.67,0,0,1-10.7,10.7,10.79,10.79,0,0,1-10.83-10.7V78.83c0-.65.13-1.16.13-1.81V30.75a10.64,10.64,0,0,1,21.27,0V48.41a30.57,30.57,0,0,1,10.95-1.94A32.35,32.35,0,0,1,184.71,78.83Z"/><path d="M287.31,105.12c-.52.39-1.16.77-1.81,1.16l-.26.26h-.13a10.76,10.76,0,0,1-12.63-16.89c.26-.38,2.84-2.57,2.71-2.45a13.09,13.09,0,0,0,1.93-1.8A11.07,11.07,0,0,0,279.31,79a10.78,10.78,0,0,0-10.82-10.7,10.28,10.28,0,0,0-6.71,2.45,10.46,10.46,0,0,0-4,8.25V126.9a10.67,10.67,0,0,1-10.7,10.7,10.79,10.79,0,0,1-10.83-10.7V79a41.45,41.45,0,0,1,1-8.12,32.37,32.37,0,0,1,31.2-24.11h.13a32.23,32.23,0,0,1,18.69,58.39Z"/><path d="M327,52.66c.52-.39,1.16-.77,1.81-1.16l.26-.26h.13a10.76,10.76,0,0,1,12.63,16.89,29.67,29.67,0,0,1-2.71,2.45A10,10,0,0,0,335,78.83a10.78,10.78,0,0,0,10.82,10.7,10.28,10.28,0,0,0,6.71-2.45,10.49,10.49,0,0,0,4-8.25V30.88a10.67,10.67,0,0,1,10.7-10.7,10.79,10.79,0,0,1,10.83,10.7v48A41.64,41.64,0,0,1,377,87a32.37,32.37,0,0,1-31.2,24.1h-.13A32.23,32.23,0,0,1,327,52.66Z"/><path d="M404.34,52.66c.52-.39,1.16-.77,1.81-1.16l.25-.26h.13a10.75,10.75,0,0,1,12.63,16.89,30.68,30.68,0,0,1-2.7,2.45,10,10,0,0,0-4.13,8.25,10.79,10.79,0,0,0,10.83,10.7,10.27,10.27,0,0,0,6.7-2.45,10.46,10.46,0,0,0,4-8.25V30.88a10.67,10.67,0,0,1,10.7-10.7,10.78,10.78,0,0,1,10.82,10.7v48a40.89,40.89,0,0,1-1,8.12,32.36,32.36,0,0,1-31.19,24.1H423a32.23,32.23,0,0,1-18.69-58.39Z"/><path d="M205.39,111.64a5.06,5.06,0,0,1-2-3.9l-.05-40.63h-1.7c-2.81,0-5.09-1.85-5.1-4.14l-.06-47c0-6.87,6.84-12.43,15.28-12.45h3.4a1.57,1.57,0,0,1,1.7,1.38L217,107.73c0,3-3,5.52-6.79,5.52a7.72,7.72,0,0,1-4.81-1.61Zm.86-46.89a1.26,1.26,0,0,1,.5,1l.05,42c0,1.52,1.52,2.76,3.4,2.76s3.4-1.24,3.39-2.77L213.48,6.32h-1.7c-6.57,0-11.89,4.35-11.89,9.68l.05,47a1.58,1.58,0,0,0,1.71,1.38H205a1.88,1.88,0,0,1,1.21.4Z"/><path d="M210.19,116.81a11.21,11.21,0,0,1-7-2.4,8.65,8.65,0,0,1-3.31-6.67l-.05-37.25c-3.87-.76-6.79-3.84-6.8-7.51l-.06-47c0-8.81,8.45-16,18.84-16h3.4a5.11,5.11,0,0,1,5.26,4.93l.12,102.79c0,5-4.64,9.09-10.35,9.09Zm-5.14-56A5.45,5.45,0,0,1,208.48,62h0A5,5,0,0,1,210,64l-.06-54c-3.65.64-6.47,3.11-6.47,5.95l.05,44.79h1.55Z"/><path class="cls-1" d="M197.79,15.93c1.36-.47.8,9.43,3.48,10.05,1.29.3,3.76-12.2,2.71,1.65-.19,2.49-1.19,8-.61,11.68.13.83,1.41-1,1.3-1.79-.68-4.94,0-8.66.23-13.44,0-1,2.46-1.4,2.81-.41a29.34,29.34,0,0,1,1.71,10.72c-.15,3.33-.74,6.7-.53,10,.06.92,1.72,1,1.85.07a21.93,21.93,0,0,0,.18-2.68c.14-8.19-.7-16.5,1.59-24.47.78-2.73,1.93-5.42,2-8.22a2.46,2.46,0,0,0-1.36-2.61,3.91,3.91,0,0,0-1.37-.17c-6.52.12-12.55,4.38-13.61,9.6"/><path class="cls-1" d="M204.46,24.56c0-.19.06-.39.09-.56l.09-.7a10,10,0,0,0,0-1.64,2.68,2.68,0,0,0-.15-.62.92.92,0,0,0-.28-.42.25.25,0,0,0-.16-.05h-.13l-.18.08a2.43,2.43,0,0,0-.31.21,2.76,2.76,0,0,0-.51.59,3.61,3.61,0,0,1,.24-.49,1.56,1.56,0,0,1,.47-.53.77.77,0,0,1,.25-.11.68.68,0,0,1,.33,0,.67.67,0,0,1,.23.09.35.35,0,0,1,.11.07,1.14,1.14,0,0,1,.28.43l.05.15,0,.2c0,.12,0,.29.06.44a17.16,17.16,0,0,1,0,2c0,.19,0,.27,0,.39l0,.32-.05.5-.12,1-.28,2-.38,2.5c-.06.33-.12,1.52-.17,2.66l.11-.72a37.37,37.37,0,0,0-.15,5.87,5.28,5.28,0,0,1,0-.64,8.62,8.62,0,0,0,0,1.4l0,.2h0l-.08,0c-.07,0-.1,0-.16,0a.37.37,0,0,0-.14.1s0,0,0-.11,0-.09,0-.13-.06-.13-.08-.15l.08-.06a2.76,2.76,0,0,0,.45-.64,1.8,1.8,0,0,0,.21-.69l-.12-1c-.08-.68-.13-1.34-.16-2s0-.82,0-1.17c-.05-2.23.2-4.36.32-7,0-.55.06-1.16.09-1.81l0-.49V24.1a1.77,1.77,0,0,1,0-.2,1.3,1.3,0,0,1,0-.21,1.24,1.24,0,0,1,.1-.2,1.8,1.8,0,0,1,.26-.34,2.86,2.86,0,0,1,.3-.22,2.29,2.29,0,0,1,.31-.16,1.73,1.73,0,0,1,.32-.11,2.82,2.82,0,0,1,1.33-.07,1.61,1.61,0,0,1,.36.1l.19.08.18.12a.9.9,0,0,1,.18.16.79.79,0,0,1,.14.18l.11.2a.69.69,0,0,1,0,.1l0,.07c.26.71.47,1.44.68,2.16a29.9,29.9,0,0,1,1,7.83c-.07,2.65-.43,5.17-.44,7.44,0,.38,0,.92,0,1.52l0,.94v.87a.24.24,0,0,0,.13.13.79.79,0,0,0,.26,0,.46.46,0,0,0,.25-.07.16.16,0,0,0,0-.07,0,0,0,0,0,0,0v-.07c.1-.91.11-1.94.12-3,0-2.17,0-4.49,0-6.46a23.2,23.2,0,0,1,.15-3,55,55,0,0,1,.8-11.91c.14-.63.26-1.27.44-1.89s.32-1.26.52-1.88c.38-1.23.8-2.45,1.13-3.67.16-.62.3-1.24.4-1.86.05-.31.09-.62.12-.94a7.09,7.09,0,0,0,0-.91,2,2,0,0,0-.51-1.4,1.24,1.24,0,0,0-.61-.32,4.13,4.13,0,0,0-.9-.08l-.66,0a5.57,5.57,0,0,0-.79.08l-.77.12c-.25,0-.47.11-.64.15a7.4,7.4,0,0,0-1,.18,14.7,14.7,0,0,0-7.22,4.62A16.28,16.28,0,0,0,198.9,15a3.31,3.31,0,0,1-.6.93,10.68,10.68,0,0,1,1-2.94,11.84,11.84,0,0,1,2-2.69,12.67,12.67,0,0,1,3-2.28,14.71,14.71,0,0,1,4.13-1.54c.44-.07.92-.18,1.45-.24.26,0,.53-.09.82-.1l.86-.06a5.27,5.27,0,0,1,.89,0,2.61,2.61,0,0,1,.94.21,2,2,0,0,1,.79.6,2.59,2.59,0,0,1,.45.83,4.1,4.1,0,0,1,.18,1.51,14,14,0,0,1-.15,1.45c-.16,1-.38,1.84-.54,2.65l-.8,2.15c-.31.87-.65,1.85-.94,2.91a34.35,34.35,0,0,0-1.09,6.54,3.44,3.44,0,0,0-.1.54c-.15,2.86-.13,5.9-.09,9,0,1.57,0,3.17.06,4.79,0,.81,0,1.62,0,2.44a23,23,0,0,1-.13,2.48,1.42,1.42,0,0,1-.21.71,1.17,1.17,0,0,1-.7.42,1.43,1.43,0,0,1-.79-.06,1.06,1.06,0,0,1-.64-.57.72.72,0,0,1-.05-.21.88.88,0,0,1,0-.21l0-.34c0-.23,0-.47,0-.7,0-.46,0-.94,0-1.41.07-1.91.3-3.9.42-5.92,0-.38.2-2.1.14-3.18,0-.38-.06-.76-.11-1.13a28.81,28.81,0,0,0-.64-4.33c-.16-.7-.32-1.37-.5-2-.08-.31-.18-.6-.26-.88l-.12-.4-.06-.2-.05-.13a.58.58,0,0,0-.21-.2l-.17-.07-.18-.05a2.05,2.05,0,0,0-.78,0,1.56,1.56,0,0,0-.68.3l-.07.05,0,.06a.35.35,0,0,0-.07.12.58.58,0,0,0,0,.14s0,.11,0,.18c0,1.13-.13,2.21-.24,3.26-.15,1.58-.33,3.66-.33,5.68,0,1,0,2,.1,2.9,0,.46.08.89.12,1.29a1.79,1.79,0,0,1,0,.33c0,.1,0,.2-.06.3a3,3,0,0,1-.22.51,4.6,4.6,0,0,1-.53.8,1.86,1.86,0,0,1-.25.22.48.48,0,0,1-.18.07.25.25,0,0,1-.21-.11.93.93,0,0,1-.08-.33l0-.28c0-.34,0-.68,0-1,0-.72-.12-1.19-.1-1.92.07-2.33.42-4.93.72-7.22.14-1.15.22-2.22.32-3.15l.24-2.41v1.14C204.39,24.67,204.4,24.87,204.46,24.56Z"/><path class="cls-1" d="M199.2,16.81c0,.1,0,0,0-.27a2.54,2.54,0,0,0-.39-.91,1.41,1.41,0,0,1,.19.4c0,.12.07.23.1.35s.1.53.17,1c0-.22-.09-.45-.14-.68a3.48,3.48,0,0,0-.26-.74c-.33-.46,0,0,.1.36s.18.65.06.25a3.23,3.23,0,0,0-.2-.57,1.4,1.4,0,0,0-.17-.28.81.81,0,0,0-.12-.14l-.1-.09a1,1,0,0,0-.25-.14s0,0,.17,0a.78.78,0,0,1,.18.13l.13.13.11.16a2.43,2.43,0,0,1,.28.66s0-.14-.08-.42a1.72,1.72,0,0,0-.31-.53,1.25,1.25,0,0,0-.53-.33,1.08,1.08,0,0,1,.42.2l.1.09a.52.52,0,0,1,.1.11,1.05,1.05,0,0,1,.14.2,2.68,2.68,0,0,1,.27.64,10,10,0,0,1,.24,1.07C199.32,17.25,199.26,17,199.2,16.81Z"/><path class="cls-1" d="M199.8,21.32l-.06-.41c-.06-.17,0,.22,0,.62-.23-1.77.1,0,0-1.09C199.72,20.41,199.86,21.5,199.8,21.32Z"/><path class="cls-1" d="M199.3,19c0-.77-.23-1.57-.18-1.77.11.7.17,1.39.23,2.08Z"/><path class="cls-1" d="M204.29,20.73a.92.92,0,0,1,.2.29l.08.21a3.57,3.57,0,0,1,.12.58,2.69,2.69,0,0,0-.18-.72,1.19,1.19,0,0,0-.3-.44A.6.6,0,0,1,204.29,20.73Z"/><path class="cls-1" d="M204.13,29.34a26.28,26.28,0,0,0-.26,2.77A26.63,26.63,0,0,1,204.13,29.34Z"/><path class="cls-1" d="M208.93,27.52s0,.39-.09-.19c-.05-.27.12.08-.14-.81C208.79,26.85,208.86,27.18,208.93,27.52Z"/><path class="cls-1" d="M209,28.59l0,.57A3.46,3.46,0,0,0,209,28.59Z"/><path class="cls-1" d="M204.56,29l0,.09v.2Z"/><path class="cls-1" d="M204.27,30.94l.23-1.35,0-.31C204.39,30.18,204.38,29.86,204.27,30.94Z"/><path class="cls-1" d="M204.48,29.22l.05-.14c0-.6.1-1,.16-1.53s.12-1,.16-1.88c-.07.62-.13,1.25-.19,1.85S204.54,28.72,204.48,29.22Z"/><path class="cls-1" d="M204.57,27.82v-.48c0-.42.07-.38.08-.36l0-.89a4.67,4.67,0,0,0-.14,1.14c-.06.72-.17,1.6-.21,1.95C204.43,28.73,204.5,28.29,204.57,27.82Z"/><path class="cls-1" d="M203.15,22.31v0l0,0Z"/><path class="cls-1" d="M204.17,22.07a.22.22,0,0,1,.05-.08l0,0a5.33,5.33,0,0,0-.1-.7A.42.42,0,0,0,204,21c-.1,0-.17,0-.22.1a4.77,4.77,0,0,0-.64,1.14v0c.11-.13.26-.47.48-.86a1.42,1.42,0,0,1,.2-.28.19.19,0,0,1,.16-.08c.06,0,.09.1.11.16A3.21,3.21,0,0,1,204.17,22.07Z"/><path class="cls-1" d="M204,32.51c.12-1.14.23-2,.22-2.36l-.27,2.11C204.07,31.47,204,32.32,204,32.51Z"/><path class="cls-1" d="M203.64,34.26c0-.34.05-.67.08-1l-.07.44A3.68,3.68,0,0,1,203.64,34.26Z"/><path class="cls-1" d="M203.65,33.69s-.05.1-.08.47Z"/><path class="cls-1" d="M203.77,31.67a13.24,13.24,0,0,0-.18,1.71A15,15,0,0,0,203.77,31.67Z"/><polygon class="cls-1" points="203.4 36.36 203.34 36.72 203.41 36.81 203.4 36.36"/><path class="cls-1" d="M203.91,34.77c.06.55.07.39.06.07a8,8,0,0,1,0-.82Z"/><path class="cls-1" d="M203.25,37.6l.05-.36,0-.18a7.78,7.78,0,0,1,0-1C203.22,35.84,203.23,37,203.25,37.6Z"/><line class="cls-1" x1="204.47" y1="37.58" x2="204.39" y2="36.49"/><path class="cls-1" d="M203,35s-.19,1.59-.08-.26c0,.71-.07,1.74-.11,1.08,0,1.17.07.09.1.87A10.15,10.15,0,0,1,203,35Z"/><path class="cls-1" d="M203,37.81c0,.29,0,.6,0,.89l0,.41,0,.16a.61.61,0,0,0,0,.17l0-.08V39.2l0-.22,0-.4C203,38.32,203,38.06,203,37.81Z"/><path class="cls-1" d="M202.81,38.35c0-.27,0-.54,0-.81,0,.16-.05.33-.06.5Z"/><line class="cls-1" x1="204.46" y1="29.96" x2="204.36" y2="29.98"/><path class="cls-1" d="M205.08,38a3.33,3.33,0,0,1-.46,1.07,3.08,3.08,0,0,1-.35.48,2.71,2.71,0,0,1-.24.23l-.19.12a.77.77,0,0,1-.38.06h.2l.15,0a1.09,1.09,0,0,0,.19-.1,1.71,1.71,0,0,0,.24-.21,3.21,3.21,0,0,0,.34-.41,3.9,3.9,0,0,0,.48-.93,1.94,1.94,0,0,0,.09-.72q0-.12,0-.12s0,0,0,0a1.34,1.34,0,0,1,0,.42,2.52,2.52,0,0,1-.19.59C205,38.26,205.05,38.07,205.08,38Z"/><path class="cls-1" d="M203.14,39.63a.75.75,0,0,1-.1-.27l0-.15,0-.31s0,.05,0,.15l0,.17a1.38,1.38,0,0,0,0,.28.62.62,0,0,0,.18.28.57.57,0,0,0,.22.11h.22a1,1,0,0,0,.42-.23,2.7,2.7,0,0,0,.45-.53,2.41,2.41,0,0,1-.58.61.64.64,0,0,1-.49.12.39.39,0,0,1-.23-.13C203.16,39.68,203.16,39.65,203.14,39.63Z"/><path class="cls-1" d="M204.52,39.13a4.7,4.7,0,0,0,.37-.65A4,4,0,0,1,204.52,39.13Z"/><path class="cls-1" d="M204.77,25c0,.62-.08,1.24-.14,1.85C204.71,26.17,204.75,25.6,204.77,25Z"/><path class="cls-1" d="M205.08,36.4l0-.29L205,36C205,36.61,205.06,36.38,205.08,36.4Z"/><path class="cls-1" d="M205.07,34c0-.52,0-1.56,0-2a21.27,21.27,0,0,0-.07,2.2C205,33.38,205,34,205.07,34Z"/><path class="cls-1" d="M205.19,31.57c0,.57,0,1.13,0,1.7A13.54,13.54,0,0,0,205.19,31.57Z"/><path class="cls-1" d="M205.34,28.82a1.84,1.84,0,0,1,0-.34c0,.25-.08.84-.12,1.26Z"/><path class="cls-1" d="M203.21,36c0,.26,0,.51,0,.75s0,.47,0,.69c0-.71,0-1.41.07-2.11C203.25,35.52,203.23,35.73,203.21,36Z"/><path class="cls-1" d="M204.1,9.39a13.5,13.5,0,0,1,3.65-1.76,15.59,15.59,0,0,1,4.07-.69c.92,0,1.58.13,1.89.87a3.07,3.07,0,0,1,.22,1.29,13.49,13.49,0,0,1-.12,1.53A48.27,48.27,0,0,1,212.13,17l0,0a35.83,35.83,0,0,0-1.18,5.62c-.26,2-.38,4.07-.44,6l0-.21c0-.63.08-1.47.11-1-.07.85-.11,2-.15,2.24l0,.65a4.2,4.2,0,0,0-.14,1.59c.13.89-.08,3.35.09,3.41a25.14,25.14,0,0,0,0,2.74l.07-.5c0,1.54-.14,3-.14,3.73a25,25,0,0,1-.14,3.16.34.34,0,0,1-.21.28.81.81,0,0,1-.51,0,.34.34,0,0,1-.24-.26V44c0-.13,0-.26,0-.39s0,0,0,.12l0,.28v.29a.26.26,0,0,0,.08.17s0,0,0-.14a.17.17,0,0,1,0-.09l0-.18,0-.38c0-.25,0-.51,0-.77,0-.53,0-1.08,0-1.65.06-1.13.18-2.32.31-3.54s.25-2.48.3-3.75a22.72,22.72,0,0,0-.19-3.72c0,.13,0,.56,0,.25a25.52,25.52,0,0,0-.59-3.72c0,.12.11.67.22,1.3s.2,1.3.25,1.66c-.23-.45,0-.4-.41-2.32a1.92,1.92,0,0,1,0,.39,10.78,10.78,0,0,1-.25-1.27,3.71,3.71,0,0,0-.2-.95c.05.27.11.54.16.81-.18-.71-.22-.82-.26-.95s-.1-.29-.37-1.07c.08.11.07,0,0-.26s-.06-.24-.1-.37l-.05-.19,0-.1-.06-.12-.11-.18a2.11,2.11,0,0,0-.26-.25,1.81,1.81,0,0,0-.74-.3c-.49-.09-.88,0-.76,0a2.28,2.28,0,0,0-1.44.52,1.15,1.15,0,0,0-.39.69l0,.18v.36a14,14,0,0,1-.17,2.11c0,.8.13-.77.18-.69-.09,1.92-.13.61-.2,1.3s-.19,3.09-.29,4.19l.05.07c-.07.83-.11,1.94-.1,2.93s.07,1.83.06,2.15c.15.69,0-.64,0-1.81A9.16,9.16,0,0,1,204,36.2a6.39,6.39,0,0,0-.05-.72,9.73,9.73,0,0,1,.13,1.06c.21,2-.13-.76-.06.07l.09.72,0,.2v.12a1.18,1.18,0,0,1,0,.25c-.1.36-.22.59,0,.29a2.25,2.25,0,0,1-.35.59c-.08.1-.11.12-.14.13l-.07,0-.07,0,0,0h0v0l.06.11,0-.09,0,0s0,0,0,0h0l0,0,.1-.1a1.08,1.08,0,0,0,.18-.24,2.56,2.56,0,0,0,.24-.46,2.83,2.83,0,0,0,.13-.42.86.86,0,0,0,0-.15s0-.07,0-.12v-.17c-.07-.33-.08-.2-.05.21a1,1,0,0,1,0,.14.55.55,0,0,1,0,.16,1.84,1.84,0,0,1-.18.45,2.86,2.86,0,0,1-.28.45l-.15.17-.05,0h0l0,0a.81.81,0,0,1,.11.2.5.5,0,0,1,0,.21v0l0,0,.06,0,.09,0a2.18,2.18,0,0,1,.22-.06h0v-.15l-.06-.42c0-.24-.05-.38-.07-.37,0-.21,0-.42,0-.64l-.08-.62v-.27a18.3,18.3,0,0,0-.05,2.31c0,.05,0-.13-.07-.38s0-.56-.07-.78,0-.23,0-.34a9.45,9.45,0,0,0-.06-1,6.83,6.83,0,0,1,0-1.36c0,.48.07.06.14-.62s.18-1.6.27-2.13c0-1.2-.13.13-.15-.9s.34-2.91.48-4.3c-.06.83-.1,1.15-.09,1.2a1.47,1.47,0,0,0,.09-.42c0-.24.07-.5.09-.54s0,.16,0,.84c.07-.57.08-1,.12-1.6s0,.84.18.09l-.06-.25.17-1.12c0-.2.06-.43.09-.71l0-.22,0-.29,0-.36,0-.53,0-.43,0-.32,0-.36,0-.37a2.81,2.81,0,0,0-.06-.35,1.67,1.67,0,0,0-.07-.3q0-.14-.09-.24a.67.67,0,0,0-.15-.35l-.1-.09a.59.59,0,0,0-.2-.11.68.68,0,0,0-.19,0h-.14a.77.77,0,0,0-.29.1,1.56,1.56,0,0,0-.46.53c-.08.17-.08.2,0,.15s.16-.17.29-.28a1.51,1.51,0,0,1,.42-.27.48.48,0,0,1,.35,0,.6.6,0,0,1,.25.25,2.31,2.31,0,0,1,.25.78l0,.26v.27c0,.17,0,.36,0,.52s0,.55-.05.66c0,.83-.06,1.21-.1,1.62s-.07.75-.12,1.07c-.08.65-.17,1.19-.27,1.76-.2,1.15-.51,2.39-.8,4.85,0,.79,0,.52-.08,2,0,.52.09,0,.17-.81s.21-1.79.3-2.24a12.73,12.73,0,0,1-.12,1.31l.14-.45a13.7,13.7,0,0,1-.21,1.76,7.61,7.61,0,0,0-.13,1.55v-.46c0,.4,0,.79,0,1.19a2.45,2.45,0,0,1,0-.27c0,.72,0,.94.09,2-.05-.3-.08-.61-.11-.92.07.62,0,.79.09,1.67a5.91,5.91,0,0,1-.16-.94c0,.33,0,.65.06,1a1.76,1.76,0,0,0,.07.43c0,.1.2,0,.3-.07a2.59,2.59,0,0,0,.53-.7,3,3,0,0,0,.32-.79,2.49,2.49,0,0,0,0-.72c0-.25-.07-.49-.09-.74-.05-.48-.09-1-.12-1.46-.05-1-.05-1.93,0-2.89.07-1.93.28-3.81.45-5.7l-.06.45a12.68,12.68,0,0,1,.15-1.49l.08-1.06a.83.83,0,0,1,.12-.46,1,1,0,0,1,.36-.31,2.14,2.14,0,0,1,1-.29,1.45,1.45,0,0,1,1,.24.84.84,0,0,1,.26.44l.19.55c.12.39.25.8.37,1.25,0,.1-.07,0-.13-.24.19.65.3,1,.18.39a23.71,23.71,0,0,1,.53,2.49c-.14-.64-.31-1.27-.49-1.9.16.81.25.76.43,1.86.17.86.15.67.11.28a4,4,0,0,1-.07-.85l.12.7-.05-.76a18,18,0,0,1,.31,3c0-.37-.06-.74-.11-1.1-.08-.2,0,.26.06.83a11.33,11.33,0,0,1,.11,1.52v-.15c.08,1.71,0-.38.1.79,0,.68,0,1.37-.1,2,0-.12.06-.23.08-.35,0,1.2-.33,3.51-.52,5.51a32,32,0,0,0-.08,4.12c0-.28,0-.84,0-.67s0,.5,0,.79l0,.44a1.7,1.7,0,0,0,0,.22,1.24,1.24,0,0,0,.1.2,1.06,1.06,0,0,0,.48.36c.1,0,.09.07-.1,0a1.44,1.44,0,0,0,.68.07,1.1,1.1,0,0,0,.61-.3l.12-.13.08-.16a1.84,1.84,0,0,0,.07-.3l.08-.46-.07.33c.05-.5.08-1,.09-1.48,0,0,.07-.53,0,.21.15-1.65,0-3.71,0-6.26l.05.76c-.07-1.51,0-1.66,0-3.3l0,.37a23.79,23.79,0,0,1,.07-3.08c-.13-.16.05-.67-.06-1.39l.14-.72c0-.76,0-1.51-.09-1,.1-1.2.17-2.16.15-2.85v-.06h0c0-.27.15-1.43,0-.92a14,14,0,0,1,.3-2.06c0-.17.07-.33.12-.61s.14-.69.25-1.33l-.07-.12c.39-2,.9-3.86,1.32-5.31l.13-.17c.29-1-.12.17.33-1.37.08-.21.16-.4.17-.36a23,23,0,0,0,.61-2.63A12.84,12.84,0,0,0,214.55,9a3.36,3.36,0,0,0-.37-1.67,1.68,1.68,0,0,1,.23.44A2.09,2.09,0,0,0,214,7a1.77,1.77,0,0,0-.85-.55,5.36,5.36,0,0,0-2-.08,15,15,0,0,0-4.72.86A14.29,14.29,0,0,0,201.67,10a13,13,0,0,0-1.26,1.45,8,8,0,0,0-.76,1.28,3.59,3.59,0,0,0-.37.93,1.12,1.12,0,0,0-.07.48c.1-.14.27-.39.48-.73s.53-.74.95-1.17A13.88,13.88,0,0,1,204.1,9.39Z"/></g></g></svg>